<svg width="109" height="30" viewBox="0 0 109 30" fill="none" xmlns="http://www.w3.org/2000/svg">
<path d="M14.8837 26.3695L14.8838 26.3695L14.886 26.3669C16.1635 24.9072 16.7866 23.069 16.7309 21.1208V2.81593C16.7309 2.46359 16.6036 2.17756 16.3958 1.98041C16.1912 1.78641 15.9223 1.69141 15.658 1.69141C15.3934 1.69141 15.1232 1.78668 14.918 1.98599C14.7099 2.18814 14.585 2.48116 14.585 2.84414V21.1527V21.1809H14.5849L14.5852 21.1902C14.6377 22.5938 14.1932 23.8572 13.2757 24.9089C11.9911 26.3644 9.95824 27.0502 8.04289 26.9681L8.0429 26.9681L8.0387 26.968C5.94605 26.9135 3.9928 25.9338 2.7794 24.1705L2.77844 24.1691C2.5561 23.8506 2.27623 23.6624 1.98101 23.6026C1.6872 23.5431 1.39987 23.6158 1.17734 23.7793C0.719352 24.1157 0.571936 24.7945 1.02421 25.4425C2.63546 27.7678 5.20674 29.0733 7.96911 29.1604C10.5 29.247 13.1264 28.3225 14.8837 26.3695Z" fill="#2D5F9A" stroke="#2D5F9A" stroke-width="0.5"/>
<path d="M28.256 28.2496L38.2336 6.67917L48.4575 28.6739L48.4574 28.6739L48.4593 28.6778C48.7721 29.3211 49.4284 29.4475 49.9112 29.213C50.1507 29.0967 50.3524 28.8903 50.4479 28.6147C50.5444 28.3367 50.5249 28.0116 50.3644 27.6726C50.3642 27.6722 50.3641 27.6718 50.3639 27.6715L38.4598 2.03016L38.2323 1.5402L38.006 2.03071L26.2941 27.4178C25.9393 28.1498 26.1407 28.8495 26.6714 29.1072C26.9309 29.2332 27.2396 29.2312 27.5282 29.0845C27.814 28.9393 28.0675 28.6602 28.2558 28.25C28.2558 28.2499 28.2559 28.2497 28.256 28.2496Z" fill="#2D5F9A" stroke="#2D5F9A" stroke-width="0.5"/>
<path d="M58.4747 29.0474V29.2974H58.7247H74.0312C74.7879 29.2974 75.2207 28.7609 75.2207 28.2011C75.2207 27.9261 75.1156 27.6481 74.899 27.4393C74.6808 27.2289 74.3665 27.1048 73.9763 27.1048H60.6206V3.00924C60.6206 2.64626 60.4957 2.35324 60.2876 2.15109C60.0824 1.95178 59.8123 1.85651 59.5477 1.85651C59.2833 1.85651 59.0144 1.95151 58.8099 2.14551C58.602 2.34266 58.4747 2.62869 58.4747 2.98103V29.0474Z" fill="#2D5F9A" stroke="#2D5F9A" stroke-width="0.5"/>
<path d="M85.9995 28.2496L95.9771 6.67917L106.201 28.6739L106.201 28.6739L106.203 28.6778C106.516 29.3211 107.172 29.4475 107.655 29.213C107.894 29.0967 108.096 28.8903 108.191 28.6147C108.288 28.3367 108.268 28.0116 108.108 27.6726C108.108 27.6722 108.108 27.6718 108.107 27.6715L96.2033 2.03016L95.9761 1.54077L95.7497 2.03051L84.0095 27.4193C84.0094 27.4194 84.0093 27.4196 84.0093 27.4197C83.6678 28.1544 83.8808 28.8519 84.4124 29.1076C84.6728 29.233 84.9819 29.2313 85.2712 29.0846C85.5575 28.9394 85.8111 28.6602 85.9993 28.2501C85.9994 28.2499 85.9994 28.2497 85.9995 28.2496Z" fill="#2D5F9A" stroke="#2D5F9A" stroke-width="0.5"/>
</svg>
